<svg width="21" height="23" viewBox="0 0 21 23" fill="none" xmlns="http://www.w3.org/2000/svg">
<path d="M18.3368 7.06596L13.2639 6.32638L10.9965 1.72915C10.5903 0.909708 9.41319 0.899291 9.00347 1.72915L6.73611 6.32638L1.66319 7.06596C0.753471 7.1979 0.388888 8.31943 1.04861 8.96179L4.71875 12.5382L3.85069 17.5903C3.69444 18.5035 4.65625 19.1875 5.4618 18.7604L10 16.375L14.5382 18.7604C15.3438 19.184 16.3056 18.5035 16.1493 17.5903L15.2813 12.5382L18.9514 8.96179C19.6111 8.31943 19.2465 7.1979 18.3368 7.06596ZM13.4931 11.9548L14.316 16.7604L10 14.493L5.68403 16.7604L6.50694 11.9548L3.01389 8.55207L7.84028 7.85068L10 3.47568L12.1597 7.85068L16.9861 8.55207L13.4931 11.9548Z" fill="#484848"/>
</svg>
